<svg height="200" viewBox="0 0 200 200" width="200" xmlns="http://www.w3.org/2000/svg"><g fill="none"><path d="m5.12820513 41.025641c-2.83222949 0-5.12820513 2.2959757-5.12820513 5.1282052 0 2.8322294 2.29597564 5.1282051 5.12820513 5.1282051 2.83222948 0 5.12820517-2.2959757 5.12820517-5.1282051 0-2.8322295-2.29597569-5.1282052-5.12820517-5.1282052z" fill="#ee3e54"/><path d="m169.230769 2.56410256c-1.416115 0-2.564102 1.14798783-2.564102 2.56410257s1.147987 2.56410256 2.564102 2.56410256 2.564103-1.14798782 2.564103-2.56410256-1.147988-2.56410257-2.564103-2.56410257z" fill="#f1bc19"/><path d="m100 5.12820513c-52.3962455 0-94.87179487 42.47554937-94.87179487 94.87179487 0 52.396245 42.47554937 94.871795 94.87179487 94.871795 52.396245 0 94.871795-42.47555 94.871795-94.871795 0-52.3962455-42.47555-94.87179487-94.871795-94.87179487z" fill="#fce0a2"/><path d="m184.615385 0c-5.664459 0-10.256411 4.59195128-10.256411 10.2564103 0 5.6644589 4.591952 10.2564102 10.256411 10.2564102s10.25641-4.5919513 10.25641-10.2564102c0-5.66445902-4.591951-10.2564103-10.25641-10.2564103z" fill="#f1bc19"/><path d="m194.871795 28.2051282c-2.83223 0-5.128205 2.2959756-5.128205 5.1282051s2.295975 5.1282052 5.128205 5.1282052c2.832229 0 5.128205-2.2959757 5.128205-5.1282052s-2.295976-5.1282051-5.128205-5.1282051z" fill="#ee3e54"/><path d="m179.487179 161.538462c-2.832229 0-5.128205 2.295975-5.128205 5.128205 0 2.832229 2.295976 5.128205 5.128205 5.128205 2.83223 0 5.128206-2.295976 5.128206-5.128205 0-2.83223-2.295976-5.128205-5.128206-5.128205zm-169.2307687-38.461539c-5.66445902 0-10.2564103 4.591951-10.2564103 10.25641s4.59195128 10.256411 10.2564103 10.256411c5.6644589 0 10.2564102-4.591952 10.2564102-10.256411s-4.5919513-10.25641-10.2564102-10.25641z" fill="#fbcd59"/><path d="m35.8974359 189.74359c-2.8322295 0-5.1282051 2.295975-5.1282051 5.128205 0 2.832229 2.2959756 5.128205 5.1282051 5.128205s5.1282051-2.295976 5.1282051-5.128205c0-2.83223-2.2959756-5.128205-5.1282051-5.128205z" fill="#ee3e54"/><path d="m19.2307692 102.564103c-3.5402868 0-6.4102564 2.869969-6.4102564 6.410256s2.8699696 6.410256 6.4102564 6.410256c3.5402869 0 6.4102564-2.869969 6.4102564-6.410256s-2.8699695-6.410256-6.4102564-6.410256z" fill="#fff"/><path d="m25.6410256 141.025641c-1.4161147 0-2.5641025 1.147988-2.5641025 2.564103 0 1.416114 1.1479878 2.564102 2.5641025 2.564102 1.4161148 0 2.5641026-1.147988 2.5641026-2.564102 0-1.416115-1.1479878-2.564103-2.5641026-2.564103z" fill="#f1bc19"/><path d="m176.923077 56.4102564c-1.416115 0-2.564103 1.1479878-2.564103 2.5641026 0 1.4161147 1.147988 2.5641025 2.564103 2.5641025s2.564102-1.1479878 2.564102-2.5641025c0-1.4161148-1.147987-2.5641026-2.564102-2.5641026z" fill="#fff"/><path d="m46.1538462 154.615385c-.4256411 0-.7692308-.346154-.7692308-.769231v-59.3076925l54.6153846-40.4897436 54.615385 40.4897436v59.3076925c0 .423077-.34359.769231-.769231.769231z" fill="#fdfcee"/><path d="m100 56.2846154 52.820513 39.1564102v57.3794874h-105.6410258v-57.3769233zm0-4.4692308-56.4102564 41.8205128v60.2102566c0 1.417949 1.1487179 2.564102 2.5641026 2.564102h107.6923078c1.415384 0 2.564102-1.146153 2.564102-2.564102v-60.2102566z" fill="#472b29"/><path d="m83.3333333 152.884615v-47.223077c0-1.002564.7461539-1.815384 1.6666667-1.815384h30c.920513 0 1.666667.81282 1.666667 1.815384v47.223077" fill="#b3b2c3"/><path d="m84.6153846 152.884615v-47.223077l.1512821-.415384.2333333-.117949h30l.233333.117949.151282.415384v47.223077h2.564103v-47.223077c0-.820512-.305128-1.582051-.825641-2.151282-.515385-.566666-1.279487-.948718-2.123077-.946166h-30c-.8435897-.002552-1.6076923.3795-2.1230769.946166-.5205128.569231-.825641 1.33077-.825641 2.151282v47.223077z" fill="#472b29"/><path d="m156.410256 93.6358974v9.0153846l-56.35641-41.8179487-56.3564101 41.8179487v-9.0153846l56.3564101-41.8205128z" fill="#ceccbe"/><path d="m38.0333333 80.7871795 61.9666667-47.4538462 61.966667 47.4538462v18.251282l-61.966667-47.4538461-61.9666667 47.4538461z" fill="#ea5167"/><path d="m38.0333333 80.7871795 1.0923077 1.425641 60.874359-46.6179487 60.169231 46.0794872v13.7307692l-59.076923-45.2461538c-.646154-.4948718-1.5358977-.4948718-2.1820516 0l-59.0820513 45.2435897v-14.6153846h-1.7948718l1.0923077 1.425641-1.0923077-1.425641h-1.7948718v18.251282c0 .6820513.3897436 1.3076925 1 1.6102565s1.3461539.230769 1.8846154-.184615l60.8769231-46.6179492 60.874359 46.6179492c.541026.41282 1.274359.487179 1.884615.184615.610257-.302564 1-.9282052 1-1.6102565v-18.251282c0-.5564103-.261538-1.0871795-.702564-1.425641l-61.964102-47.4538462c-.646154-.4948718-1.5358977-.4948718-2.1820516 0l-61.9666667 47.4538462c-.4435897.3384615-.7025641.8666666-.7025641 1.425641z" fill="#472b29"/><path d="m155.1 35.6076923v7.7384615c0 .5410257-.410256.9666667-.933333.9666667l-4.051282.0538462v31.9102564c0 .3692307-.205129.6948718-.523077.8692307l-.410257.0974359-.558974-.1923076-11.18718-8.7051283c-.243589-.1717948-.374359-.4641025-.374359-.7743589v-23.2076923l-4.051282-.0538462c-.523077 0-.933333-.425641-.933333-.9666667v-7.7384615c0-.5410256.410256-.9666667.933333-.9666667h21.153847c.525641.0025641.935897.4282052.935897.9692308z" fill="#fefdef"/><path d="m142.325641 70.5282051-4.123077-3.2076923-.023077-.0179487-.192308.2717949h.358975l-.166667-.2717949-.192308.2717949h.358975v-24.4717949l-5.315385-.0717949h-.017948v.3615385l.261538-.2512821-.261538-.1102564v.3615385l.261538-.2512821-.212821.2051282h.3l-.089743-.2051282-.212821.2051282h.3v-7.7384615h-.3l.210257.2051282.089743-.2051282h-.3l.210257.2051282-.261539-.251282v.3615384l.261539-.1102564-.261539-.251282v.3615384h21.153846v-.3615384l-.261538.251282.261538.1102564v-.3615384l-.261538.251282.210256-.2051282h-.3l.089744.2051282.210256-.2051282h-.3v7.7384615h.3l-.210256-.2051282-.089744.2051282h.3l-.210256-.2051282.261538.2512821v-.3615385l-.261538.1102564.261538.2512821v-.3615385h-.023076l-5.310257.0717949v33.1769231h.28718l-.141026-.2564103-.146154.2564103h.28718l-.141026-.2564103.61282 1.125641-.289743-1.251282-.048718.0102564-.005128-.0025641-1.958975-1.525641c-.558974-.4358975-1.364102-.3333334-1.8.225641-.435897.5589744-.333333 1.3641026.225641 1.8l2.294872 1.7846154.758975.2615385.351282.1205128.774359-.1846154.166666-.0410257.151282-.0820512c.710257-.3846154 1.189744-1.1410257 1.189744-1.9948718v-30.6384616l2.784615-.0384615-.017948-1.2820513v1.2820513c.61282.0025641 1.189743-.2589744 1.584615-.6717949.4-.4128205.630769-.9794872.630769-1.5769231v-7.7384615c0-.5974359-.230769-1.1641026-.630769-1.5769231-.394872-.4128205-.971795-.6743589-1.584615-.6718135h-21.153847c-.61282-.0025454-1.189743.258993-1.584615.6718135-.4.4128205-.630769.9794872-.630769 1.5769231v7.7384615c0 .5974359.230769 1.1641026.630769 1.5769231.394872.4128205.971795.674359 1.584615.6717949v-1.2820513l-.017948 1.2820513 2.784615.0384615v21.9435898c-.002564.6589743.282051 1.3692307.912821 1.8179487l.743589-1.0435898-.787179 1.0128206 4.102564 3.1923077c.558974.4358974 1.364103.3333333 1.8-.2256411.435897-.5589743.335897-1.3666666-.223077-1.8zm-35.915385 60.2410259h5.128206c.707692 0 1.282051-.574359 1.282051-1.282052 0-.707692-.574359-1.282051-1.282051-1.282051h-5.128206c-.707692 0-1.282051.574359-1.282051 1.282051 0 .707693.574359 1.282052 1.282051 1.282052" fill="#472b29"/></g></svg>